<svg width="338" height="46" viewBox="0 0 338 46" fill="none" xmlns="http://www.w3.org/2000/svg">
<path d="M1.77 12.57V15.63H16.59V12.57H1.77ZM1.44 24.63C6.18 24.6 12.33 24.54 17.73 23.67L17.55 20.82C12.27 21.42 5.88 21.48 1.05 21.48L1.44 24.63ZM3.96 14.1V23.31H7.8V14.1H3.96ZM10.59 14.1V23.31H14.4V14.1H10.59ZM19.08 10.89V25.11H23.07V10.89H19.08ZM21.45 16.32V19.56H26.73V16.32H21.45ZM4.71 26.22V29.28H19.14V30.87H4.77V37.05H8.73V33.72H23.07V26.22H4.71ZM4.77 35.4V38.49H23.88V35.4H4.77ZM34.7377 23.28V26.46H54.2677V23.28H34.7377ZM31.8277 32.28V35.55H56.9677V32.28H31.8277ZM42.3577 24.72V33.33H46.3477V24.72H42.3577ZM34.7377 12.78V24.66H38.7277V15.99H54.0577V12.78H34.7377ZM127.412 27.87C121.622 27.87 117.992 29.88 117.992 33.27C117.992 36.69 121.622 38.7 127.412 38.7C133.172 38.7 136.802 36.69 136.802 33.27C136.802 29.88 133.172 27.87 127.412 27.87ZM127.412 30.99C130.952 30.99 132.842 31.71 132.842 33.27C132.842 34.86 130.952 35.61 127.412 35.61C123.872 35.61 121.952 34.86 121.952 33.27C121.952 31.71 123.872 30.99 127.412 30.99ZM132.482 10.89V27.24H136.472V10.89H132.482ZM135.362 17.34V20.64H140.162V17.34H135.362ZM115.412 12.66V25.71H128.762V12.66H124.802V16.08H119.372V12.66H115.412ZM119.372 19.17H124.802V22.59H119.372V19.17ZM148.08 12.51V15.66H165.51V12.51H148.08ZM145.23 24.33V27.54H170.34V24.33H145.23ZM155.64 26.58V38.7H159.66V26.58H155.64ZM163.47 12.51V14.97C163.47 17.85 163.47 21.15 162.39 25.8L166.32 26.25C167.4 21.33 167.4 17.97 167.4 14.97V12.51H163.47ZM189.988 16.05V19.29H195.628V16.05H189.988ZM182.158 12.33V14.94C182.158 18.69 180.268 22.35 175.618 23.88L177.718 27.03C182.998 25.2 185.428 20.43 185.428 14.94V12.33H182.158ZM182.968 12.33V15.18C182.968 20.31 185.278 24.81 190.318 26.55L192.388 23.43C188.038 22.02 186.178 18.63 186.178 15.18V12.33H182.968ZM180.118 28.68V31.83H195.058V38.67H199.048V28.68H180.118ZM195.058 10.89V27.42H199.048V10.89H195.058ZM216.207 36L218.116 24.3636H219.707L217.798 36H216.207ZM210.963 33L211.23 31.4091H220.185L219.917 33H210.963ZM212.116 36L214.025 24.3636H215.616L213.707 36H212.116ZM211.639 28.9545L211.9 27.3636H220.855L220.594 28.9545H211.639ZM230.133 31.664C227.045 31.664 225.109 32.736 225.109 34.544C225.109 36.368 227.045 37.44 230.133 37.44C233.205 37.44 235.141 36.368 235.141 34.544C235.141 32.736 233.205 31.664 230.133 31.664ZM230.133 33.328C232.021 33.328 233.029 33.712 233.029 34.544C233.029 35.392 232.021 35.792 230.133 35.792C228.245 35.792 227.221 35.392 227.221 34.544C227.221 33.712 228.245 33.328 230.133 33.328ZM232.837 22.608V31.328H234.965V22.608H232.837ZM234.373 26.048V27.808H236.933V26.048H234.373ZM223.733 23.552V30.512H230.853V23.552H228.741V25.376H225.845V23.552H223.733ZM225.845 27.024H228.741V28.848H225.845V27.024ZM241.156 23.472V25.152H250.452V23.472H241.156ZM239.636 29.776V31.488H253.028V29.776H239.636ZM245.188 30.976V37.44H247.332V30.976H245.188ZM249.364 23.472V24.784C249.364 26.32 249.364 28.08 248.788 30.56L250.884 30.8C251.46 28.176 251.46 26.384 251.46 24.784V23.472H249.364ZM263.506 25.36V27.088H266.514V25.36H263.506ZM259.33 23.376V24.768C259.33 26.768 258.322 28.72 255.842 29.536L256.962 31.216C259.778 30.24 261.074 27.696 261.074 24.768V23.376H259.33ZM259.762 23.376V24.896C259.762 27.632 260.994 30.032 263.682 30.96L264.786 29.296C262.466 28.544 261.474 26.736 261.474 24.896V23.376H259.762ZM258.242 32.096V33.776H266.21V37.424H268.338V32.096H258.242ZM266.21 22.608V31.424H268.338V22.608H266.21ZM278.37 28.336V29.984H279.602C282.626 29.984 284.386 29.952 286.386 29.648L286.21 28C284.226 28.304 282.578 28.336 279.602 28.336H278.37ZM278.37 23.2V29.344H280.498V24.848H285.33V23.2H278.37ZM279.842 25.76V27.344H285.01V25.76H279.842ZM287.362 22.608V30.208H289.49V22.608H287.362ZM288.626 25.504V27.216H291.442V25.504H288.626ZM279.698 30.832V32.448H287.394V33.28H279.73V36.56H281.842V34.784H289.49V30.832H279.698ZM279.73 35.712V37.328H289.922V35.712H279.73ZM299.777 30.144V32.288H301.905V30.144H299.777ZM294.177 28.896V30.448H307.521V28.896H294.177ZM299.777 22.592V24.384H301.889V22.592H299.777ZM299.649 24.48V24.768C299.649 25.792 298.289 26.8 294.673 26.944L295.265 28.528C299.361 28.304 301.521 26.896 301.521 24.768V24.48H299.649ZM300.145 24.48V24.768C300.145 26.896 302.305 28.304 306.385 28.528L306.977 26.944C303.377 26.8 302.017 25.792 302.017 24.768V24.48H300.145ZM295.425 23.76V25.312H306.257V23.76H295.425ZM295.681 31.344V32.88H303.825V33.584H295.697V36.416H297.793V35.008H305.921V31.344H295.681ZM295.697 35.776V37.328H306.305V35.776H295.697ZM320.671 22.608V37.424H322.815V22.608H320.671ZM316.303 24.144V24.528C316.303 28.496 314.767 31.184 310.511 33.232L311.615 34.928C316.879 32.384 318.415 28.672 318.415 24.144H316.303ZM311.295 24.144V25.824H317.311V24.144H311.295Z" fill="white"/>
<circle cx="86" cy="24" r="22" fill="white"/>
<path d="M82.07 9.77V25.13H99.62V9.77H95.63V14.12H86V9.77H82.07ZM86 17.63H95.63V21.65H86V17.63Z" fill="#5707FF"/>
</svg>
