<svg width="110" height="46" viewBox="0 0 110 46" fill="none" xmlns="http://www.w3.org/2000/svg">
<path d="M51.18 4.38V6.42H61.06V4.38H51.18ZM50.96 12.42C54.12 12.4 58.22 12.36 61.82 11.78L61.7 9.88C58.18 10.28 53.92 10.32 50.7 10.32L50.96 12.42ZM52.64 5.4V11.54H55.2V5.4H52.64ZM57.06 5.4V11.54H59.6V5.4H57.06ZM62.72 3.26V12.74H65.38V3.26H62.72ZM64.3 6.88V9.04H67.82V6.88H64.3ZM53.14 13.48V15.52H62.76V16.58H53.18V20.7H55.82V18.48H65.38V13.48H53.14ZM53.18 19.6V21.66H65.92V19.6H53.18ZM73.1584 11.52V13.64H86.1784V11.52H73.1584ZM71.2184 17.52V19.7H87.9784V17.52H71.2184ZM78.2384 12.48V18.22H80.8984V12.48H78.2384ZM73.1584 4.52V12.44H75.8184V6.66H86.0384V4.52H73.1584ZM59.34 38.58C55.48 38.58 53.06 39.92 53.06 42.18C53.06 44.46 55.48 45.8 59.34 45.8C63.18 45.8 65.6 44.46 65.6 42.18C65.6 39.92 63.18 38.58 59.34 38.58ZM59.34 40.66C61.7 40.66 62.96 41.14 62.96 42.18C62.96 43.24 61.7 43.74 59.34 43.74C56.98 43.74 55.7 43.24 55.7 42.18C55.7 41.14 56.98 40.66 59.34 40.66ZM62.72 27.26V38.16H65.38V27.26H62.72ZM64.64 31.56V33.76H67.84V31.56H64.64ZM51.34 28.44V37.14H60.24V28.44H57.6V30.72H53.98V28.44H51.34ZM53.98 32.78H57.6V35.06H53.98V32.78ZM73.1184 28.34V30.44H84.7384V28.34H73.1184ZM71.2184 36.22V38.36H87.9584V36.22H71.2184ZM78.1584 37.72V45.8H80.8384V37.72H78.1584ZM83.3784 28.34V29.98C83.3784 31.9 83.3784 34.1 82.6584 37.2L85.2784 37.5C85.9984 34.22 85.9984 31.98 85.9984 29.98V28.34H83.3784ZM101.057 30.7V32.86H104.817V30.7H101.057ZM95.8369 28.22V29.96C95.8369 32.46 94.5769 34.9 91.4769 35.92L92.8769 38.02C96.3969 36.8 98.0169 33.62 98.0169 29.96V28.22H95.8369ZM96.3769 28.22V30.12C96.3769 33.54 97.9169 36.54 101.277 37.7L102.657 35.62C99.7569 34.68 98.5169 32.42 98.5169 30.12V28.22H96.3769ZM94.4769 39.12V41.22H104.437V45.78H107.097V39.12H94.4769ZM104.437 27.26V38.28H107.097V27.26H104.437Z" fill="white"/>
<circle cx="22" cy="24" r="22" fill="white"/>
<path d="M18.07 9.77V25.13H35.62V9.77H31.63V14.12H22V9.77H18.07ZM22 17.63H31.63V21.65H22V17.63Z" fill="#5707FF"/>
</svg>
